# xmcd
#
# Track frame offsets: 
#        150
#        16080
#        31855
#        47782
#
# Disc length: 851 seconds
#
# Revision: 0
# Processed by: cddbd v1.5.2PL0 Copyright (c) Steve Scherf et al.
# Submitted via: ExactAudioCopy v0.99pb5
#
DISCID=23035104
DTITLE=Bill and Gloria Gaither And Their Homecoming Friends - 'Til The S
DTITLE=torm Passes By (From Whispering Hope)
DYEAR=2004
DGENRE=Gospel
TTITLE0=Demonstration
TTITLE1=Original - Key 1 (Split Track) - Bb-B
TTITLE2=Key 2 (Instrumental) - Db-D
TTITLE3=Key 3 (Instrumental) - G-Ab
EXTD=
EXTT0=
EXTT1=
EXTT2=
EXTT3=
PLAYORDER=
